<svg width="512" height="512" version="1.1" viewBox="0 0 512 512" xmlns="http://www.w3.org/2000/svg">
 <path d="m255.98 16a96 96 0 0 0-95.979 96 96 96 0 0 0 42.934 80h106.13a96 96 0 0 0 42.936-80 96 96 0 0 0-96-96 96 96 0 0 0-0.02148 0zm-47.979 192c-16 0-32 0-32 16v16c0 16 16 16 32 16h96c16 0 32 0 32-16v-16c0-16-16-16-32-16h-96zm-16 64c-16 48-16 48-32 64s-16 16-16 48h224c0-32 0-32-16-48s-16-16-32-64h-128zm-64 128c-16 0-32.001 16-32.07 31.998h321.39c-1.3177-15.998-17.318-31.998-33.318-31.998h-256zm-32 48c-16 0-32 16-32 48h384c0-32-16-48-32-48h-320z" fill="#eee" stroke="#888" stroke-linecap="round" stroke-width="4"/>
</svg>
