<svg width="512" height="512" version="1.1" viewBox="0 0 512 512" xmlns="http://www.w3.org/2000/svg">
 <path d="m256 16c-8.8366 0-16 7.1634-16 16s7.1634 16 16 16 16-7.1634 16-16-7.1634-16-16-16zm0 32c-0.0814-2.07e-4 -0.16276-2.07e-4 -0.24414 0-20.252 0.10349-38.259 12.906-45.01 32h90.508c-6.7804-19.178-24.913-32-45.254-32zm-64 48c-16 16-16 16 0 32s16 16 16 64h96c0-48 0-48 16-64s16-16 0-32h-128zm32 112c-16 0-32 0-32 16s16 16 32 16h64c16 0 32 0 32-16s-16-16-32-16h-64zm-16 48c0 64 0 64-32 128h160c-32-64-32-64-32-128h-96zm144 144-191.93 0.00195c-32.07 15.998-32.07 31.998-16.07 47.998h224c16-16 16-32-16-48zm-208 64c-16 0-16 0-16 32h256c0-32 0-32-16-32h-224z" fill="#eee" stroke="#888" stroke-linecap="round" stroke-linejoin="round" stroke-width="4"/>
</svg>
